<?xml version="1.0" encoding="utf-8"?>
<!-- Generator: Adobe Illustrator 27.7.0, SVG Export Plug-In . SVG Version: 6.00 Build 0)  -->
<svg version="1.1" id="Layer_1" xmlns="http://www.w3.org/2000/svg" xmlns:xlink="http://www.w3.org/1999/xlink" x="0px" y="0px"
	 viewBox="0 0 24 24" style="enable-background:new 0 0 24 24;" xml:space="preserve">
<style type="text/css">
	.st0{fill:#FFFFFF;}
</style>
<g id="Tailx">
	<g>
		<path class="st0" d="M18.86987,5.73157c-1.28121-0.58919-2.65113-1.01739-4.08335-1.26121
			c-0.17589,0.31257-0.38139,0.73298-0.52307,1.06742c-1.52248-0.22505-3.03097-0.22505-4.52545,0
			C9.59635,5.20335,9.38618,4.78293,9.20872,4.47037C7.77495,4.71418,6.40345,5.14396,5.12225,5.73469
			c-2.5842,3.83827-3.28474,7.5812-2.93447,11.27098c1.71398,1.25806,3.37503,2.0223,5.00805,2.52239
			c0.4032-0.54543,0.7628-1.12523,1.07259-1.73629c-0.59-0.22035-1.1551-0.49228-1.68905-0.80797
			c0.14166-0.10315,0.28022-0.21099,0.41408-0.32195c3.2567,1.49719,6.79519,1.49719,10.01299,0
			c0.13544,0.11096,0.27397,0.21881,0.41408,0.32195c-0.53552,0.31724-1.10216,0.58916-1.69217,0.80954
			c0.30979,0.60948,0.66784,1.19086,1.07259,1.73626c1.63459-0.50009,3.29718-1.2643,5.01116-2.52394
			C22.2231,12.72827,21.11003,9.01972,18.86987,5.73157z M15.97484,14.98862c-2.93513-0.10693-3.76751-2.79634-3.97541-4.82284
			c-0.20739,2.0236-1.03623,4.71788-3.96875,4.825c-3.66051,0.13497-4.46897-2.44726-4.5124-4.47262
			c0.58374,0.02054,1.17191-0.00417,1.75215-0.07009c0.20542,1.79187,1.42936,3.17103,2.90964,3.16902
			c1.6242-0.00101,2.94335-1.65876,2.94115-3.70029c-0.00098-0.44865-0.0678-0.88952-0.19639-1.31848
			c0.55309-0.30072,0.92484-0.54096,1.04879-0.62654l0.02479-0.01629l0.02455,0.01664
			c0.12686,0.08732,0.49527,0.3245,1.05236,0.62886c-0.13045,0.42715-0.19523,0.87122-0.19422,1.31575
			c-0.00191,2.0415,1.31877,3.6971,2.94297,3.6961c1.48437,0.00213,2.70288-1.37644,2.90864-3.16544
			c0.57932,0.06578,1.16306,0.08632,1.7512,0.06573C20.441,12.53788,19.63349,15.12118,15.97484,14.98862z"/>
	</g>
</g>
</svg>
