<?xml version="1.0" encoding="utf-8"?>
<!-- Generator: Adobe Illustrator 27.7.0, SVG Export Plug-In . SVG Version: 6.00 Build 0)  -->
<svg version="1.1" id="Layer_1" xmlns="http://www.w3.org/2000/svg" xmlns:xlink="http://www.w3.org/1999/xlink" x="0px" y="0px"
	 viewBox="0 0 24 24" style="enable-background:new 0 0 24 24;" xml:space="preserve">
<style type="text/css">
	.st0{fill:#FFFFFF;}
</style>
<g id="Tailx">
	<g>
		<path class="st0" d="M19.85071,7.33197c0.18414-0.86664,0.31812-1.92053,0.38129-3.05005
			c0.04456-0.79749,0.04755-1.55438,0.00842-2.13116c-0.05896-0.86938-0.19061-1.10669-0.37012-1.19562
			c-0.14191-0.07019-0.39429-0.10736-1.09216,0.23169c-0.4483,0.21777-1.00452,0.55676-1.56628,0.95441
			c-1.36487,0.96619-2.5694,2.12122-3.30487,3.16907l-0.11609,0.16541c-1.19153-0.13989-2.37439-0.1416-3.54871-0.00482
			L10.12946,5.3103C9.39404,4.26251,8.18951,3.10742,6.82465,2.14124C6.26288,1.74359,5.7066,1.4046,5.2583,1.18683
			C4.56036,0.84772,4.30804,0.88495,4.16614,0.95514c-0.1795,0.08887-0.3111,0.32623-0.37012,1.19562
			C3.75696,2.72754,3.75995,3.48444,3.8045,4.28192c0.06207,1.10999,0.19257,2.14679,0.37177,3.00476
			c-1.80731,3.29761-2.29138,6.5282-1.98846,9.71899c1.71399,1.25806,3.375,2.02228,5.00806,2.5224
			c0.4032-0.54541,0.76276-1.12524,1.07257-1.73627c-0.59003-0.2204-1.15509-0.49231-1.68903-0.80798
			c0.14166-0.10315,0.28021-0.211,0.41406-0.32196c3.25671,1.49719,6.79517,1.49719,10.013,0
			c0.13544,0.11096,0.27399,0.21881,0.41406,0.32196c-0.53552,0.3172-1.10217,0.58917-1.69214,0.80951
			c0.30975,0.6095,0.66785,1.19086,1.07257,1.73627c1.63458-0.50006,3.29718-1.26428,5.01117-2.52393
			C22.15778,13.40814,21.42511,10.21301,19.85071,7.33197z M19.21796,1.93866c0.36096,0.17877,0.2652,4.38232-0.47699,6.04315
			L14.7066,5.35693C16.01831,3.48804,18.80994,1.73657,19.21796,1.93866z M4.81854,1.93866
			C5.2265,1.73657,8.01819,3.48804,9.3299,5.35693L5.29547,7.98181C4.55328,6.32098,4.45752,2.11743,4.81854,1.93866z
			 M15.97485,14.98865c-2.93512-0.10693-3.76752-2.79633-3.9754-4.82288c-0.2074,2.02362-1.03625,4.7179-3.96875,4.82501
			c-3.66052,0.13501-4.46899-2.44727-4.51239-4.4726c0.58374,0.02051,1.17188-0.00415,1.75214-0.07013
			c0.20544,1.79193,1.42938,3.17108,2.90967,3.16907c1.62415-0.00104,2.9433-1.65875,2.9411-3.70032
			c-0.00098-0.44861-0.06775-0.88953-0.19635-1.31848c0.5531-0.30072,0.9248-0.54095,1.04877-0.62653l0.02478-0.0163l0.0246,0.01666
			c0.12683,0.08728,0.49524,0.32446,1.05237,0.62885c-0.13049,0.42712-0.19525,0.87122-0.19427,1.31573
			c-0.00189,2.0415,1.31879,3.69708,2.94299,3.69611c1.48438,0.00214,2.70288-1.37646,2.90863-3.16547
			c0.57935,0.0658,1.16309,0.08636,1.75122,0.06573C20.44104,12.5379,19.63348,15.12122,15.97485,14.98865z"/>
	</g>
</g>
</svg>
